<svg width="20" height="20" viewBox="0 0 20 20" fill="none" xmlns="http://www.w3.org/2000/svg">
<g clip-path="url(#clip0_638_5725)">
<path d="M19.2509 9.26057C18.5007 8.51079 17.4512 8.23941 16.4837 8.44511V3.77233C16.4837 1.76039 14.8469 0.123535 12.8351 0.123535H7.16133C5.14949 0.123535 3.51263 1.76039 3.51263 3.77233V8.44451C2.54615 8.24032 1.49826 8.5119 0.748893 9.26097C-0.249665 10.2599 -0.249664 11.8853 0.749094 12.8843C0.928468 13.0636 1.13225 13.2031 1.34885 13.3074V15.8703C1.34885 16.6339 1.9701 17.2553 2.7338 17.2553H2.8708L2.27225 18.8915C2.13313 19.272 2.32875 19.6931 2.70898 19.8322C2.79211 19.8625 2.87716 19.8769 2.96079 19.8769C3.25991 19.8769 3.54078 19.6925 3.64953 19.3953L4.4324 17.2553H15.5638L16.3467 19.3953C16.4554 19.6927 16.7363 19.8769 17.0354 19.8769C17.1191 19.8769 17.2042 19.8624 17.2872 19.8322C17.6677 19.6931 17.8631 19.2719 17.724 18.8915L17.1253 17.2553H17.2623C18.0259 17.2553 18.6473 16.634 18.6473 15.8703V13.3089C18.8654 13.2046 19.0703 13.0645 19.2508 12.8842C20.2498 11.8852 20.2498 10.2598 19.2509 9.26057ZM4.97919 3.77233C4.97919 2.56908 5.95808 1.5901 7.16133 1.5901H12.8351C14.0382 1.5901 15.0171 2.56908 15.0171 3.77233V9.22647C15.0052 9.23807 14.9928 9.24907 14.981 9.26087C14.3284 9.91359 13.9593 10.7718 13.932 11.6946H6.06834C6.04201 10.7751 5.67288 9.9149 5.01894 9.26077C5.00593 9.24775 4.99241 9.23575 4.97919 9.22304V3.77233ZM2.81562 15.7884V13.4633C3.19666 13.3723 3.55843 13.1809 3.85523 12.8842C4.14155 12.5979 4.14165 12.1337 3.85523 11.8473C3.56892 11.5607 3.10465 11.5607 2.81834 11.8472C2.53375 12.1315 2.07079 12.1315 1.78639 11.8473C1.35935 11.4201 1.35935 10.7249 1.78619 10.298C2.3917 9.69266 3.37694 9.69266 3.98225 10.298C4.38659 10.7023 4.60753 11.24 4.60451 11.8061L4.59644 12.4056C4.59139 12.7729 4.85752 13.0798 5.20911 13.1381C5.26671 13.1527 5.32664 13.1612 5.38878 13.1612H14.608C14.6678 13.1612 14.7255 13.1533 14.7811 13.1399C15.1377 13.0859 15.4093 12.7765 15.4041 12.4057L15.3961 11.812C15.3931 11.24 15.614 10.7023 16.0182 10.298C16.6235 9.69276 17.6089 9.69266 18.2142 10.298C18.6412 10.7251 18.6412 11.4203 18.2144 11.8472C17.9298 12.1317 17.4669 12.1315 17.1824 11.8473C16.8961 11.5607 16.4318 11.5607 16.1455 11.8473C15.859 12.1336 15.859 12.5979 16.1455 12.8842C16.4414 13.18 16.8017 13.3711 17.1816 13.4625V15.7886H2.81562V15.7884Z" fill="#433779"/>
</g>
<defs>
<clipPath id="clip0_638_5725">
<rect width="20" height="20" fill="white"/>
</clipPath>
</defs>
</svg>
