<svg width="20" height="20" viewBox="0 0 20 20" fill="none" xmlns="http://www.w3.org/2000/svg">
<g clip-path="url(#clip0_638_5713)">
<path d="M18.2634 10.2782V4.6873C18.2634 4.2948 17.9452 3.97653 17.5525 3.97653C17.16 3.97653 16.8418 4.29471 16.8418 4.6873V5.94231C16.4524 5.32962 15.8795 4.77305 15.1416 4.30204C13.7576 3.41859 11.9314 2.93213 9.99995 2.93213C8.06839 2.93213 6.24233 3.41869 4.85834 4.30204C4.12029 4.77305 3.54759 5.32972 3.15813 5.94231V4.6873C3.15813 4.2948 2.83995 3.97653 2.44736 3.97653C2.05477 3.97653 1.73659 4.29471 1.73659 4.6873V10.2782C0.774913 10.304 0 11.0927 0 12.0607V13.4775V13.9095V18.3358C0 18.7284 0.318179 19.0467 0.710769 19.0467C1.10336 19.0467 1.42154 18.7285 1.42154 18.3358V15.657C1.53888 15.6814 1.66032 15.6944 1.78489 15.6944H18.2151C18.3396 15.6944 18.4611 15.6814 18.5785 15.657V18.3358C18.5785 18.7284 18.8966 19.0467 19.2892 19.0467C19.6819 19.0467 20.0001 18.7285 20.0001 18.3358V13.9095V13.4775V12.0607C20.0001 11.0925 19.2252 10.304 18.2634 10.2782ZM10.0001 4.35347C12.8562 4.35347 15.3243 5.61123 15.8956 7.22813H4.10455C4.67598 5.61133 7.14407 4.35347 10.0001 4.35347ZM16.842 8.64967V10.2758H3.15832V8.64967H16.842ZM18.5786 13.4774V13.9094C18.5786 14.1099 18.4156 14.2728 18.2152 14.2728H1.78499C1.58464 14.2728 1.42164 14.1099 1.42164 13.9094V13.4774V12.0605C1.42164 11.8601 1.58464 11.6971 1.78499 11.6971H18.2152C18.4156 11.6971 18.5786 11.8601 18.5786 12.0605V13.4774Z" fill="#433779"/>
<path d="M2.44787 3.1264C3.04707 3.1264 3.53451 2.63896 3.53451 2.03976C3.53451 1.44056 3.04707 0.953125 2.44787 0.953125C1.84877 0.953125 1.36133 1.44056 1.36133 2.03976C1.36133 2.63896 1.84877 3.1264 2.44787 3.1264Z" fill="#433779"/>
<path d="M17.5525 3.1264C18.1516 3.1264 18.639 2.63896 18.639 2.03976C18.639 1.44056 18.1516 0.953125 17.5525 0.953125C16.9533 0.953125 16.4658 1.44056 16.4658 2.03976C16.4658 2.63896 16.9533 3.1264 17.5525 3.1264Z" fill="#433779"/>
</g>
<defs>
<clipPath id="clip0_638_5713">
<rect width="20" height="20" fill="white"/>
</clipPath>
</defs>
</svg>
