<svg width="150" height="45" viewBox="0 0 150 45" fill="none" xmlns="http://www.w3.org/2000/svg">
<path d="M49.845 24.6522H53.0802C54.261 24.6522 55.3079 24.4947 56.221 24.1799C57.1499 23.8493 57.882 23.3691 58.4172 22.7394C58.9525 22.0939 59.2201 21.3225 59.2201 20.4251C59.2201 19.4805 58.9525 18.7012 58.4172 18.0872C57.882 17.4575 57.1499 16.9852 56.221 16.6703C55.3079 16.3554 54.261 16.198 53.0802 16.198H46.4444V32.7285H53.5053C54.8907 32.7285 56.0793 32.579 57.0712 32.2798C58.063 31.965 58.8266 31.469 59.3618 30.7921C59.8971 30.1151 60.1647 29.2256 60.1647 28.1236C60.1647 27.2734 59.968 26.5493 59.5744 25.951C59.1965 25.337 58.6849 24.8411 58.0394 24.4633C57.3939 24.0697 56.6776 23.7863 55.8904 23.6131C55.1033 23.4242 54.3082 23.3297 53.5053 23.3297H49.845V25.8329H52.9385C53.2849 25.8329 53.5998 25.8565 53.8831 25.9038C54.1823 25.951 54.442 26.0376 54.6624 26.1635C54.8986 26.2895 55.0796 26.4548 55.2056 26.6595C55.3315 26.8641 55.3945 27.1239 55.3945 27.4388C55.3945 27.9268 55.2843 28.3046 55.0639 28.5723C54.8435 28.8242 54.5444 28.9973 54.1665 29.0918C53.8044 29.1863 53.3951 29.2335 52.9385 29.2335H51.0257V19.693H52.5135C53.1432 19.693 53.6234 19.8111 53.954 20.0473C54.2846 20.2834 54.4499 20.6534 54.4499 21.1572C54.4499 21.4878 54.3712 21.7712 54.2138 22.0073C54.0721 22.2435 53.8595 22.4245 53.5762 22.5504C53.2928 22.6764 52.9385 22.7394 52.5135 22.7394H49.845V24.6522ZM65.7453 32.7285H74.0814V29.021H65.7453V32.7285ZM65.7453 19.9056H74.0814V16.198H65.7453V19.9056ZM65.7453 25.9274H73.6091V22.3379H65.7453V25.9274ZM62.6281 16.198V32.7285H67.0205V16.198H62.6281ZM77.0129 16.198V32.7285H81.7596V16.198H77.0129ZM83.2001 32.7285C85.0735 32.7285 86.6794 32.3979 88.0175 31.7367C89.3715 31.0597 90.4105 30.1072 91.1347 28.8793C91.8747 27.6355 92.2446 26.1635 92.2446 24.4633C92.2446 22.7472 91.8747 21.2752 91.1347 20.0473C90.4105 18.8193 89.3715 17.8747 88.0175 17.2135C86.6794 16.5365 85.0735 16.198 83.2001 16.198H80.1301V20.2126H83.0112C83.5622 20.2126 84.0974 20.2755 84.617 20.4015C85.1523 20.5117 85.6324 20.7242 86.0575 21.0391C86.4826 21.3382 86.821 21.7712 87.0729 22.3379C87.3406 22.8889 87.4744 23.5974 87.4744 24.4633C87.4744 25.3291 87.3406 26.0455 87.0729 26.6122C86.821 27.1632 86.4826 27.5962 86.0575 27.9111C85.6324 28.2102 85.1523 28.4227 84.617 28.5487C84.0974 28.6589 83.5622 28.714 83.0112 28.714H80.1301V32.7285H83.2001ZM94.465 16.198V32.7285H99.2116V16.198H94.465ZM100.652 32.7285C102.526 32.7285 104.131 32.3979 105.47 31.7367C106.824 31.0597 107.863 30.1072 108.587 28.8793C109.327 27.6355 109.697 26.1635 109.697 24.4633C109.697 22.7472 109.327 21.2752 108.587 20.0473C107.863 18.8193 106.824 17.8747 105.47 17.2135C104.131 16.5365 102.526 16.198 100.652 16.198H97.5822V20.2126H100.463C101.014 20.2126 101.549 20.2755 102.069 20.4015C102.604 20.5117 103.084 20.7242 103.51 21.0391C103.935 21.3382 104.273 21.7712 104.525 22.3379C104.793 22.8889 104.926 23.5974 104.926 24.4633C104.926 25.3291 104.793 26.0455 104.525 26.6122C104.273 27.1632 103.935 27.5962 103.51 27.9111C103.084 28.2102 102.604 28.4227 102.069 28.5487C101.549 28.6589 101.014 28.714 100.463 28.714H97.5822V32.7285H100.652ZM111.917 16.198V32.7285H116.593V16.198H111.917ZM122.87 32.7285H131.206V29.021H122.87V32.7285ZM122.87 19.9056H131.206V16.198H122.87V19.9056ZM122.87 25.9274H130.733V22.3379H122.87V25.9274ZM119.752 16.198V32.7285H124.145V16.198H119.752Z" fill="#9B9B9B"/>
<path d="M36.5441 16.7615C36.5442 14.4998 35.8613 12.2908 34.5847 10.4238C33.3081 8.55681 31.4973 7.11892 29.3897 6.29847C27.2821 5.47801 24.9757 5.31324 22.7728 5.82572C20.5699 6.33821 18.5732 7.50407 17.0441 9.17058H2.8623V39.1023H32.8055V25.1137C33.9807 24.0626 34.9211 22.7754 35.5653 21.3362C36.2096 19.897 36.5431 18.3383 36.5441 16.7615ZM30.7827 16.7615C30.785 17.8452 30.4657 18.9053 29.8652 19.8076C29.2647 20.7097 28.4101 21.4136 27.4094 21.8299C26.4088 22.2462 25.3072 22.3563 24.2439 22.1462C23.1807 21.9362 22.2036 21.4154 21.4365 20.6499C20.6693 19.8843 20.1466 18.9084 19.9343 17.8455C19.7221 16.7828 19.8299 15.6809 20.2441 14.6794C20.6583 13.6779 21.3603 12.8218 22.2613 12.2195C23.1623 11.6171 24.2217 11.2956 25.3055 11.2956C26.7561 11.2956 28.1476 11.8711 29.1744 12.8958C30.2014 13.9205 30.7798 15.3108 30.7827 16.7615ZM27.0441 33.3409H8.62367V14.9319H14.2373C14.1289 15.5359 14.0718 16.1479 14.0668 16.7615C14.0699 19.7412 15.2549 22.598 17.3619 24.7051C19.4689 26.812 22.3257 27.9971 25.3055 28.0001C25.8881 27.997 26.4694 27.9476 27.0441 27.8523V33.3409Z" fill="#9B9B9B"/>
</svg>
