<svg width="20" height="20" viewBox="0 0 20 20" fill="none" xmlns="http://www.w3.org/2000/svg">
<path d="M16.6891 4H3.31114C2.3122 4 1.49951 4.8126 1.49951 5.81135V13.5554C1.49951 14.4468 2.14735 15.188 2.99669 15.3376C3.1052 15.7193 3.4563 15.9999 3.87235 15.9999H4.4506C4.85604 15.9999 5.20013 15.7336 5.31792 15.3666H14.6821C14.7999 15.7336 15.1441 15.9999 15.5494 15.9999H16.1278C16.5439 15.9999 16.8948 15.7193 17.0033 15.3376C17.8527 15.188 18.5005 14.4468 18.5005 13.5554V5.81135C18.5006 4.8126 17.6879 4 16.6891 4ZM2.87606 5.81135C2.87606 5.5716 3.0713 5.37645 3.31124 5.37645H9.31192V8.79464C8.88337 8.79985 8.53729 9.14858 8.53729 9.57836V11.2755C8.53729 11.7052 8.88327 12.0539 9.31192 12.0591V13.9904H3.31114C3.07121 13.9904 2.87596 13.7952 2.87596 13.5554L2.87606 5.81135ZM17.1241 13.5554C17.1241 13.7952 16.9289 13.9904 16.689 13.9904H10.6883V10.3389C11.1167 10.3336 11.463 9.98513 11.463 9.55545V7.85829C11.463 7.42842 11.117 7.07969 10.6883 7.07448V5.37645H16.689C16.9289 5.37645 17.1241 5.5716 17.1241 5.81135V13.5554Z" fill="#433779"/>
</svg>
