<svg width="64" height="64" viewBox="0 0 64 64" fill="none" xmlns="http://www.w3.org/2000/svg">
<path d="M58.3111 22.0447C57.3155 22.0447 56.3341 22.3291 55.4667 22.8411V22.0447C55.4667 17.3229 53.0773 14.9336 48.3556 14.9336H15.6444C10.9227 14.9336 8.53333 17.3229 8.53333 22.0447V22.8411C7.66573 22.3291 6.6844 22.0588 5.68893 22.0447C2.54573 22.0447 0 24.5905 0 27.7336V39.1113C0 42.2545 2.54573 44.8003 5.68893 44.8003H8.53333V47.6447C8.53333 48.4269 9.17333 49.0669 9.9556 49.0669C10.7379 49.0669 11.3779 48.4269 11.3779 47.6447V44.8003H52.6223V47.6447C52.6223 48.4269 53.2623 49.0669 54.0445 49.0669C54.8267 49.0669 55.4667 48.4269 55.4667 47.6447V44.8003H58.2969C61.44 44.8003 64 42.2545 64 39.1113V27.7336C64 24.5905 61.4543 22.0447 58.3111 22.0447ZM11.3777 22.0447C11.3777 18.9016 12.4871 17.778 15.6444 17.778H48.3555C51.4985 17.778 52.6221 18.9016 52.6221 22.0447V32.0003H11.3777V22.0447ZM61.1556 39.1113C61.1556 40.69 59.8613 41.9557 58.2969 41.9557H5.68893C4.12453 41.9557 2.84453 40.6757 2.84453 39.1113V27.7336C2.84453 26.1692 4.12453 24.8892 5.68893 24.8892C7.25333 24.8892 8.53333 26.1692 8.53333 27.7336V34.8447H55.4667V27.7336C55.4667 26.1692 56.7467 24.8892 58.3111 24.8892C59.8755 24.8892 61.1555 26.1692 61.1555 27.7336V39.1113H61.1556Z" fill="#433779"/>
</svg>
