<svg width="20" height="20" viewBox="0 0 20 20" fill="none" xmlns="http://www.w3.org/2000/svg">
<path d="M15 13.3309V11.2126C15 10.663 14.5533 10.2161 14.0042 10.2161H13.004L12.5555 7.74133H12.6068C13.6465 7.74133 14.4923 6.89466 14.4923 5.85398V1.88726C14.4924 0.84667 13.6465 0 12.6068 0H6.39316C5.35354 0 4.50776 0.84667 4.50776 1.88726V5.85398C4.50776 6.89411 5.35263 7.74033 6.39142 7.74124L5.94289 10.2161H4.99563C4.44662 10.2161 4 10.6633 4 11.2126V13.3309C4 13.8806 4.44671 14.3276 4.99563 14.3276H5.21301L4.67476 17.1802C4.65706 17.2337 4.64638 17.2904 4.64291 17.3491L4.29121 19.2127C4.22322 19.5731 4.45994 19.9203 4.81986 19.9883C4.86148 19.9962 4.90291 20 4.9437 20C5.25626 20 5.5346 19.7777 5.59474 19.4592L5.86021 18.0525H13.14L13.4054 19.4592C13.4655 19.7779 13.7439 20 14.0565 20C14.0974 20 14.1387 19.9962 14.1802 19.9883C14.5401 19.9203 14.777 19.5731 14.7089 19.2127L14.3572 17.3491C14.3537 17.2904 14.343 17.2337 14.3252 17.1802L13.7871 14.3276H14.0043C14.5534 14.3277 15 13.8806 15 13.3309ZM5.83438 5.85398V1.88726C5.83438 1.57888 6.08507 1.32787 6.39316 1.32787H12.6068C12.9149 1.32787 13.1657 1.57879 13.1657 1.88726V5.85398C13.1657 6.16245 12.9149 6.41346 12.6068 6.41346H6.39316C6.08507 6.41346 5.83438 6.16245 5.83438 5.85398ZM7.73967 7.74133H11.2073L11.6557 10.2161H7.29114L7.73967 7.74133ZM5.32662 11.5439H13.6734V12.9997H12.9999C12.9975 12.9997 12.9948 12.9997 12.9924 12.9997H6.00659C6.00449 12.9997 6.00239 12.9997 6.00029 12.9997H5.32662V11.5439ZM12.8893 16.7249H6.11062L6.56299 14.3279H12.4368L12.8893 16.7249Z" fill="#433779"/>
</svg>
