<svg width="25" height="24" viewBox="0 0 25 24" fill="none" xmlns="http://www.w3.org/2000/svg">
<path fill-rule="evenodd" clip-rule="evenodd" d="M12.6665 22C18.1894 22 22.6665 17.5228 22.6665 12C22.6665 6.47715 18.1894 2 12.6665 2C7.14366 2 2.6665 6.47715 2.6665 12C2.6665 17.5228 7.14366 22 12.6665 22ZM12.2014 8.90211C11.5815 8.97389 11.1247 9.34586 11.1247 9.93971C11.1247 10.4096 11.4249 10.7489 12.0187 10.9447C12.0774 10.9643 12.1362 10.9838 12.2014 10.9969V8.90211ZM13.2064 15.1343C13.8981 15.0755 14.3876 14.6514 14.3876 14.0118C14.3876 13.4767 14.0678 13.1178 13.3369 12.9155C13.2978 12.909 13.2521 12.8959 13.2064 12.8829V15.1343ZM13.2129 16.5438L13.2195 17.3726H12.1623L12.1688 16.5569C10.0088 16.4003 9.19956 15.1277 9.1865 13.9205H10.8963C10.9289 14.5208 11.3661 15.0233 12.2014 15.1343V12.7067L11.6402 12.5827C10.4264 12.3151 9.35618 11.5581 9.35618 10.0768C9.35618 8.51056 10.5961 7.64263 12.1753 7.49906V6.65723H13.2325V7.50558C14.8835 7.68178 15.9473 8.71286 15.9734 10.0702H14.3027C14.2832 9.54817 13.8981 9.0261 13.2064 8.91516V11.1927L13.7611 11.3101C15.0728 11.5907 16.1365 12.2564 16.1365 13.8356C16.1365 15.3888 15.001 16.3742 13.2129 16.5438Z" fill="white"/>
</svg>
