<svg width="72" height="73" viewBox="0 0 72 73" fill="none" xmlns="http://www.w3.org/2000/svg">
<path d="M26.6677 42.8084C29.215 45.0767 32.3205 45.3039 33.4696 45.3039C33.5146 45.3039 33.5537 45.3039 33.5957 45.3039L36.6261 48.404L39.6805 45.3039C39.7196 45.3039 39.7586 45.3039 39.8036 45.3039C40.9497 45.3039 44.0582 45.0767 46.6056 42.8084C48.7479 40.9023 49.948 38.0477 50.1671 34.3275C50.1791 34.128 50.1071 33.9346 49.969 33.7965C49.831 33.6553 49.645 33.5847 49.45 33.5939C45.8134 33.818 43.023 35.0458 41.1598 37.2373C38.8494 39.9538 38.7054 43.2811 38.7204 44.3216L37.3132 45.7612V40.5708C38.0453 39.8433 40.2416 37.3877 40.4877 33.7965C40.6857 30.8959 39.5605 28.0136 37.1452 25.2235C37.0162 25.0762 36.8331 24.9902 36.6381 24.9902C36.4431 24.9902 36.26 25.0762 36.131 25.2235C33.7157 28.0136 32.5905 30.8989 32.7885 33.7965C33.0316 37.3877 35.2279 39.8433 35.963 40.5708V45.7612L34.5558 44.3216C34.5708 43.278 34.4268 39.9507 32.1194 37.2373C30.2562 35.0458 27.4658 33.818 23.8292 33.5939C23.6372 33.5816 23.4452 33.6553 23.3102 33.7965C23.1721 33.9377 23.1001 34.1311 23.1121 34.3275C23.3312 38.0477 24.5313 40.9023 26.6737 42.8084H26.6677ZM42.1919 38.1367C43.6771 36.3963 45.8795 35.3588 48.7509 35.0458C48.4448 37.9801 47.4277 40.2362 45.7294 41.7556C44.2112 43.1123 42.4199 43.6249 41.1388 43.8121L44.0252 40.8593C44.2892 40.5892 44.2892 40.1502 44.0252 39.8801C43.7611 39.61 43.3321 39.61 43.068 39.8801L40.1816 42.8329C40.3676 41.5254 40.8687 39.6898 42.1919 38.1367V38.1367ZM34.1357 33.7013C33.9797 31.3931 34.8198 29.0573 36.6351 26.7552C38.4474 29.0542 39.2875 31.3808 39.1345 33.686C38.9994 35.7425 38.0843 37.4031 37.3102 38.4621V34.2876C37.3102 33.9039 37.0072 33.5939 36.6321 33.5939C36.257 33.5939 35.954 33.9039 35.954 34.2876V38.4682C35.1829 37.4154 34.2708 35.764 34.1327 33.7013H34.1357ZM31.0813 38.1367C32.4075 39.6898 32.9086 41.5223 33.0916 42.8329L30.2052 39.8801C29.9411 39.61 29.5121 39.61 29.248 39.8801C28.984 40.1502 28.984 40.5892 29.248 40.8593L32.1344 43.8121C30.8563 43.6218 29.062 43.1123 27.5438 41.7556C25.8425 40.2362 24.8284 37.9832 24.5223 35.0458C27.3908 35.3588 29.5961 36.3994 31.0813 38.1367V38.1367Z" fill="#433779"/>
<path d="M63.9982 38.708L69.321 39.6906L68.6627 43.3264L67.6179 43.1335L68.0431 40.7851L66.9515 40.5836L66.5682 42.7005L65.5208 42.5072L65.9041 40.3902L63.7651 39.9954L63.9982 38.708Z" fill="#433779"/>
<path d="M64.9497 53.0429L64.2577 54.15L61.3134 52.2738C60.9731 52.0569 60.7276 51.7866 60.5768 51.4628C60.4274 51.1399 60.3747 50.7887 60.4187 50.4093C60.4641 50.0308 60.6072 49.6489 60.8482 49.2634C61.0919 48.8734 61.3732 48.5763 61.692 48.3721C62.0123 48.1688 62.3485 48.0665 62.7005 48.0651C63.0539 48.0647 63.4008 48.173 63.7411 48.3898L66.6854 50.2661L65.992 51.3755L63.1435 49.5603C62.986 49.4599 62.8241 49.4048 62.6578 49.3949C62.4906 49.3865 62.3328 49.4229 62.1845 49.5039C62.0362 49.5849 61.9103 49.7083 61.8066 49.8741C61.7029 50.04 61.6473 50.2072 61.6396 50.3757C61.631 50.5457 61.6664 50.7051 61.7458 50.8539C61.8253 51.0027 61.9437 51.1273 62.1013 51.2277L64.9497 53.0429Z" fill="#433779"/>
<path d="M54.4549 57.5824L57.5706 62.0085L55.7541 63.3122C55.4249 63.5485 55.0986 63.6926 54.7754 63.7446C54.4517 63.799 54.1467 63.7621 53.8602 63.6337C53.5748 63.5067 53.3256 63.292 53.1126 62.9894C52.8966 62.6825 52.7795 62.374 52.7615 62.0637C52.7446 61.755 52.8189 61.4565 52.9846 61.1685C53.1513 60.8819 53.4021 60.6183 53.737 60.3779L54.8858 59.5535L55.4791 60.3964L54.5279 61.079C54.3676 61.1941 54.2485 61.311 54.1705 61.4299C54.0921 61.5512 54.0555 61.6751 54.0605 61.8016C54.0665 61.9296 54.1177 62.062 54.2141 62.1988C54.3105 62.3357 54.418 62.4288 54.5367 62.4781C54.6564 62.5288 54.7864 62.5374 54.9266 62.504C55.0679 62.472 55.2179 62.399 55.3768 62.285L55.9008 61.909L53.392 58.3452L54.4549 57.5824ZM53.4032 61.382L50.8841 60.1451L52.0436 59.3129L54.5412 60.5653L53.4032 61.382Z" fill="#433779"/>
<path d="M43.2487 68.9596L42.0436 63.6827L43.1247 63.4309L45.9182 65.9881L45.9516 65.9803L45.2561 62.9347L46.5303 62.638L47.7354 67.9149L46.6388 68.1703L43.8697 65.6129L43.826 65.6231L44.5203 68.6635L43.2487 68.9596Z" fill="#433779"/>
<path d="M32.4412 69.4668L33.0188 64.0849L34.3193 64.2272L33.7417 69.6091L32.4412 69.4668Z" fill="#433779"/>
<path d="M25.5196 66.9286L25.066 67.8893L20.9438 65.9051L21.3974 64.9443L22.8763 65.6562L24.7335 61.7223L25.8957 62.2817L24.0384 66.2156L25.5196 66.9286Z" fill="#433779"/>
<path d="M12.6111 59.6236L11.7372 58.6536L14.3084 56.2918C14.6056 56.0188 14.9288 55.8524 15.2779 55.7925C15.6258 55.7337 15.975 55.7765 16.3257 55.9209C16.675 56.0665 17.0019 56.3082 17.3061 56.6459C17.614 56.9876 17.8232 57.3409 17.9338 57.7058C18.0431 58.0719 18.0518 58.4264 17.9598 58.7692C17.8666 59.1132 17.6714 59.4217 17.3743 59.6946L14.803 62.0565L13.9273 61.0845L16.4149 58.7996C16.5524 58.6732 16.6479 58.5305 16.7014 58.3713C16.7537 58.2109 16.7607 58.0476 16.7227 57.8817C16.6846 57.7157 16.6001 57.56 16.4692 57.4147C16.3383 57.2694 16.1934 57.1705 16.0345 57.1178C15.8744 57.0639 15.7128 57.0556 15.5497 57.0931C15.3866 57.1305 15.2362 57.2123 15.0987 57.3387L12.6111 59.6236Z" fill="#433779"/>
<path d="M11.143 48.2133L6.05988 50.0734L5.3045 47.969C5.16759 47.5875 5.1181 47.2332 5.15603 46.906C5.19171 46.5778 5.30987 46.2915 5.51052 46.0474C5.70952 45.8038 5.98275 45.6185 6.33023 45.4913C6.68267 45.3623 7.00985 45.3298 7.31175 45.3939C7.612 45.4585 7.87755 45.6089 8.1084 45.8453C8.3376 46.0823 8.52184 46.3948 8.66113 46.7828L9.13882 48.1137L8.17085 48.4679L7.7753 47.3659C7.70863 47.1802 7.62898 47.0339 7.53635 46.9271C7.44148 46.8192 7.33279 46.7511 7.21029 46.7228C7.08614 46.695 6.94547 46.7099 6.78828 46.7674C6.63109 46.825 6.51281 46.9048 6.43343 47.007C6.3524 47.1099 6.30886 47.2337 6.30281 47.3785C6.2951 47.5239 6.32428 47.6886 6.39035 47.8727L6.60822 48.4797L10.701 46.9819L11.143 48.2133ZM7.79036 46.1953L9.65812 44.0765L10.1403 45.4198L8.26358 47.5137L7.79036 46.1953Z" fill="#433779"/>
<path d="M8.56729 37.6867L3.15784 37.4969L3.28765 33.725L4.34947 33.7622L4.26465 36.2266L5.37401 36.2656L5.45219 33.994L6.51665 34.0313L6.43847 36.3029L7.55047 36.3419L7.63528 33.8775L8.6971 33.9148L8.56729 37.6867Z" fill="#433779"/>
<path d="M13.5624 20.1361L12.2948 21.684L8.1397 18.2152L9.40557 16.6693C9.75497 16.2426 10.139 15.9446 10.5576 15.7754C10.9761 15.6037 11.4095 15.5639 11.8579 15.6559C12.3049 15.7468 12.7442 15.9724 13.1756 16.3326C13.6085 16.6939 13.9118 17.0883 14.0856 17.5157C14.2605 17.9417 14.3044 18.3789 14.2174 18.8273C14.129 19.2745 13.9107 19.7107 13.5624 20.1361ZM12.2675 19.9571L12.6744 19.4602C12.8664 19.2257 12.9896 18.9946 13.044 18.7669C13.0981 18.5367 13.07 18.3054 12.9595 18.0732C12.8488 17.8385 12.644 17.5964 12.3451 17.3468C12.0462 17.0973 11.7735 16.9408 11.5271 16.8774C11.2794 16.8129 11.0488 16.8304 10.8352 16.9298C10.6215 17.0268 10.4164 17.1952 10.2199 17.4352L9.82473 17.9177L12.2675 19.9571Z" fill="#433779"/>
<path d="M20.881 12.8587L18.3033 8.09909L21.6073 6.27484L22.1133 7.2091L19.9546 8.401L20.4832 9.37709L22.473 8.27845L22.9802 9.21504L20.9904 10.3137L21.5203 11.2921L23.679 10.1002L24.185 11.0345L20.881 12.8587Z" fill="#433779"/>
<path d="M32.793 4.64894C32.7526 4.4586 32.657 4.31844 32.5061 4.22846C32.3568 4.13652 32.1553 4.10592 31.9017 4.13667C31.7338 4.15702 31.5964 4.19585 31.4897 4.25316C31.383 4.31047 31.3062 4.38101 31.2593 4.46478C31.2123 4.5468 31.1938 4.63691 31.2037 4.7351C31.2097 4.81601 31.2339 4.88496 31.2762 4.94196C31.3202 4.99874 31.3791 5.04662 31.4529 5.08559C31.5283 5.1226 31.617 5.15267 31.7192 5.17579C31.8213 5.19891 31.9351 5.21617 32.0607 5.22757L32.5349 5.27658C32.8077 5.30209 33.0512 5.35066 33.2656 5.4223C33.4817 5.49372 33.6667 5.58755 33.8207 5.70377C33.9764 5.81978 34.1005 5.96005 34.1928 6.12457C34.2851 6.2891 34.3449 6.47885 34.3722 6.69385C34.4108 7.03349 34.3598 7.3352 34.219 7.59897C34.0783 7.86273 33.8564 8.07865 33.5534 8.24671C33.2522 8.41456 32.8777 8.52562 32.43 8.5799C31.9804 8.63439 31.5806 8.61452 31.2305 8.52029C30.8804 8.42607 30.5963 8.25284 30.3782 8.00062C30.1602 7.7484 30.0235 7.41265 29.9684 6.99337L31.212 6.84262C31.2431 7.01457 31.3066 7.15329 31.4026 7.25881C31.4985 7.36432 31.6217 7.43813 31.7722 7.48023C31.9245 7.52212 32.0959 7.53151 32.2866 7.5084C32.4615 7.4872 32.6074 7.44555 32.7242 7.38347C32.8428 7.32118 32.9303 7.24401 32.9868 7.15197C33.0433 7.05993 33.0659 6.95957 33.0548 6.85088C33.041 6.74961 32.9992 6.66682 32.9295 6.6025C32.8595 6.53644 32.7576 6.4849 32.6236 6.44789C32.4912 6.40891 32.3244 6.37855 32.1231 6.35681L31.546 6.29364C31.068 6.24331 30.6811 6.11539 30.3852 5.90988C30.089 5.70262 29.9176 5.39504 29.8709 4.98716C29.8296 4.65494 29.8842 4.35281 30.0346 4.08077C30.185 3.80874 30.4111 3.58344 30.7128 3.40488C31.0145 3.22632 31.3691 3.11234 31.7767 3.06294C32.193 3.01248 32.5626 3.03956 32.8856 3.14417C33.2101 3.24683 33.4722 3.41473 33.6721 3.64786C33.8719 3.88099 33.9934 4.16444 34.0367 4.4982L32.793 4.64894Z" fill="#433779"/>
<path d="M43.5436 3.63542L42.3984 8.92565L41.1209 8.6437L42.2661 3.35346L43.5436 3.63542Z" fill="#433779"/>
<path d="M52.6863 9.27122C52.7198 9.16099 52.7345 9.05439 52.7303 8.95143C52.727 8.84697 52.7056 8.74661 52.666 8.65036C52.6265 8.55411 52.5686 8.46393 52.4923 8.37982C52.417 8.29422 52.3244 8.21639 52.2144 8.14631C51.993 8.00523 51.7677 7.93686 51.5385 7.94123C51.3108 7.94654 51.0886 8.02435 50.8721 8.17468C50.6565 8.3235 50.4572 8.54434 50.2741 8.83718C50.0901 9.13152 49.9756 9.40952 49.9305 9.67118C49.8854 9.93283 49.909 10.1693 50.0013 10.3807C50.0936 10.592 50.2541 10.7706 50.483 10.9164C50.685 11.0452 50.8765 11.1212 51.0572 11.1445C51.2404 11.1672 51.4067 11.1405 51.5561 11.0644C51.7055 10.9883 51.832 10.8673 51.9357 10.7014L52.1253 10.8568L51.0154 10.1494L51.5211 9.34035L53.4891 10.5945L53.1095 11.2019C52.8527 11.6128 52.5458 11.9092 52.1889 12.0913C51.8335 12.2743 51.4552 12.3477 51.054 12.3114C50.6543 12.276 50.2584 12.1334 49.8661 11.8834C49.4307 11.6059 49.1074 11.2672 48.8961 10.8673C48.6849 10.4673 48.5968 10.0331 48.632 9.56453C48.6682 9.09451 48.8376 8.61745 49.1401 8.13335C49.3755 7.75684 49.6399 7.45841 49.9335 7.23808C50.228 7.01625 50.5383 6.86718 50.8644 6.79086C51.192 6.71549 51.52 6.70932 51.8484 6.77233C52.1782 6.83629 52.4955 6.96533 52.8001 7.15944C53.0646 7.32799 53.2867 7.5228 53.4664 7.74388C53.6476 7.9659 53.7824 8.20226 53.8709 8.45294C53.9609 8.70458 54.0011 8.96105 53.9915 9.22237C53.9819 9.48369 53.9191 9.73717 53.8029 9.98281L52.6863 9.27122Z" fill="#433779"/>
<path d="M63.7715 17.616L59.3396 20.7234L58.7106 19.8088L60.0479 16.2406L60.0284 16.2122L57.4705 18.0057L56.7292 16.9278L61.1611 13.8203L61.7991 14.748L60.4527 18.2936L60.4781 18.3306L63.0317 16.5402L63.7715 17.616Z" fill="#433779"/>
</svg>
