<svg width="150" height="45" viewBox="0 0 150 45" fill="none" xmlns="http://www.w3.org/2000/svg">
<path d="M81.3594 15.8225C82.7841 16.1442 83.9101 16.8565 84.7373 17.9595C85.5875 19.0395 86.0126 20.2803 86.0126 21.682C86.0126 23.7501 85.3003 25.3701 83.8756 26.542C82.4509 27.7139 80.4518 28.2999 77.8782 28.2999H60.6787V4H77.499C79.9807 4 81.9224 4.55149 83.3241 5.65446C84.7488 6.75743 85.4611 8.30849 85.4611 10.3076C85.4611 11.7323 85.082 12.9272 84.3237 13.8923C83.5884 14.8344 82.6003 15.4778 81.3594 15.8225ZM67.4344 13.651H76.0169C77.7173 13.651 78.5675 12.9502 78.5675 11.5485C78.5675 10.1008 77.7173 9.37699 76.0169 9.37699H67.4344V13.651ZM76.5339 22.8539C78.2344 22.8539 79.0846 22.1416 79.0846 20.7169C79.0846 19.9816 78.8548 19.4186 78.3952 19.028C77.9586 18.6374 77.3267 18.442 76.4995 18.442H67.4344V22.8539H76.5339Z" fill="#9B9B9B"/>
<path d="M52.4063 4V20.0965C52.4063 22.831 51.6595 24.922 50.1659 26.3697C48.6952 27.8173 46.6616 28.5411 44.0651 28.5411C41.3076 28.5411 39.1017 27.7713 37.4472 26.2318C35.8157 24.6922 35 22.4748 35 19.5795H41.6868C41.7097 21.4867 42.4106 22.4403 43.7893 22.4403C45.0302 22.4403 45.6506 21.659 45.6506 20.0965V4H52.4063Z" fill="#9B9B9B"/>
<path d="M101.041 9.41146V13.3753H115V18.511H101.041V22.8884H115V28.2999H94.2852V4H115V9.41146H101.041Z" fill="#9B9B9B"/>
<rect x="35.4131" y="34.5039" width="16.5446" height="6.20422" fill="#9B9B9B"/>
</svg>
