<svg width="20" height="20" viewBox="0 0 20 20" fill="none" xmlns="http://www.w3.org/2000/svg">
<g clip-path="url(#clip0_638_5719)">
<path d="M9.99997 0C5.73958 0 2.27344 3.46605 2.27344 7.72634C2.27344 8.114 2.5877 8.42836 2.97545 8.42836H9.29805V18.596H6.9438C6.55614 18.596 6.24178 18.9102 6.24178 19.2981C6.24178 19.6858 6.55604 20.0001 6.9438 20.0001H13.0561C13.4439 20.0001 13.7583 19.6858 13.7583 19.2981C13.7583 18.9102 13.444 18.596 13.0561 18.596H10.7021V8.42836H14.0766V11.102C14.0766 11.4896 14.3908 11.8041 14.7787 11.8041C15.1664 11.8041 15.4807 11.4897 15.4807 11.102V8.42836H17.0245C17.4121 8.42836 17.7265 8.11409 17.7265 7.72634C17.7262 3.46605 14.2603 0 9.99997 0ZM3.7162 7.02432C4.06648 3.86732 6.75103 1.40394 10.0001 1.40394C13.2489 1.40394 15.9335 3.86732 16.2836 7.02432H3.7162Z" fill="#433779"/>
</g>
<defs>
<clipPath id="clip0_638_5719">
<rect width="20" height="20" fill="white"/>
</clipPath>
</defs>
</svg>
