<svg width="100" height="100" viewBox="0 0 100 100" fill="none" xmlns="http://www.w3.org/2000/svg">
<path d="M89.9637 69.8753C89.5808 69.4857 89.7905 68.4774 89.8984 68.062C92.9587 56.2785 92.9495 43.8246 89.8711 32.0463C89.7056 31.4134 89.5635 30.5327 90.0187 30.0694C92.9104 27.1265 92.9104 22.3379 90.0187 19.395C87.1274 16.4521 82.4221 16.4517 79.5304 19.395C79.1374 19.8032 78.4063 20.743 77.0559 20.4458C59.2785 16.5339 41.2457 16.5014 23.4585 20.3485C22.4317 20.5703 21.3583 20.3004 20.4697 19.3948C17.5782 16.4517 12.8731 16.4517 9.98158 19.3948C7.08989 22.3377 7.08989 27.1263 9.97911 30.0669L10.0391 30.1281C10.4434 30.5395 10.2486 31.5852 10.0963 32.1719C7.04868 43.9192 7.05231 56.3369 10.1063 68.0824C10.3214 68.9094 10.3367 69.5694 10.1451 69.7643L9.98158 69.9309C7.08989 72.8738 7.08989 77.6624 9.98158 80.6055C12.7952 83.4695 17.5747 83.4937 20.4196 80.6559C20.9717 80.1324 21.5433 79.4421 22.6188 79.6829C40.8017 83.7443 59.2408 83.7464 77.4237 79.6888C78.4875 79.4516 79.0752 80.1402 79.5299 80.6055C80.9756 82.0768 82.8749 82.8125 84.7739 82.8125C86.673 82.8125 88.5722 82.0768 90.0179 80.6053C92.9096 77.6624 92.9096 72.8738 90.0179 69.9307L89.9637 69.8753ZM85.0928 33.34C87.9507 44.2744 87.9596 55.8365 85.1182 66.7761C84.4183 69.4713 84.8974 71.8357 86.4675 73.4335L86.522 73.489C87.486 74.4701 87.486 76.0662 86.522 77.0471C85.5582 78.0282 83.9899 78.0281 83.0306 77.052L82.6382 76.6505C80.9893 74.9631 78.6431 74.2651 76.3648 74.7735C58.885 78.6742 41.1587 78.6723 23.6787 74.7678C21.5006 74.2817 19.2257 74.9129 17.5937 76.4579C17.4996 76.547 17.0472 76.9735 16.9572 77.0638C16.0254 77.993 14.3992 77.9854 13.4776 77.0471C12.5137 76.0661 12.5137 74.4699 13.4781 73.4885L13.6414 73.3221C14.7026 72.2422 15.7801 70.2333 14.8861 66.7949C12.0506 55.8905 12.0473 44.3623 14.8767 33.4563C15.5487 30.8658 15.3215 28.3927 13.4776 26.5111C12.5137 25.53 12.5137 23.9338 13.4776 22.9529C14.3826 22.0319 15.929 21.8885 17.0381 23.0187C18.9917 25.0151 21.7766 25.8569 24.4862 25.2707C41.5854 21.5723 58.9207 21.6037 76.0112 25.3641C78.437 25.898 80.9212 25.1404 82.6567 23.3376L83.0334 22.9461C83.9982 21.972 85.5609 21.9744 86.5227 22.9531C87.4866 23.9342 87.4866 25.5303 86.5227 26.5112L86.4663 26.5684C84.8651 28.1983 84.3774 30.6031 85.0928 33.34Z" fill="#433779"/>
<g clip-path="url(#clip0_605_5710)">
<path d="M45.7326 49.3767C46.4897 49.1104 47.2095 48.7471 47.8743 48.2957C48.4295 47.9166 48.9196 47.4489 49.3253 46.9109C49.695 46.4201 49.9778 45.8685 50.1611 45.2808C50.3384 44.6956 50.4274 44.087 50.4251 43.4753C50.4383 42.4097 50.2411 41.3521 49.8447 40.3639C49.4537 39.4199 48.8196 38.598 48.0078 37.9829C47.023 37.2696 45.9089 36.7575 44.7285 36.4754C43.1298 36.088 41.4886 35.9073 39.8445 35.9379H29.6875V63.7561H40.7151C42.2161 63.7781 43.711 63.5592 45.1435 63.1076C46.3323 62.7455 47.438 62.1497 48.3967 61.3547C49.2532 60.6292 49.9374 59.7198 50.399 58.6932C50.8584 57.6536 51.0909 56.5269 51.081 55.3891C51.081 53.8309 50.6447 52.5484 49.7722 51.5415C48.8997 50.5345 47.5531 49.8129 45.7326 49.3767ZM36.098 40.7671H39.8445C40.4717 40.7586 41.0981 40.8164 41.7134 40.9395C42.1842 41.0355 42.6281 41.235 43.0135 41.5237C43.3584 41.8 43.6206 42.1671 43.7709 42.5842C43.9489 43.1156 44.0324 43.6743 44.0175 44.2349C44.0365 44.8121 43.9296 45.3865 43.7041 45.9176C43.5078 46.3488 43.1913 46.7132 42.7929 46.9664C42.3486 47.2385 41.8556 47.4201 41.3419 47.5011C40.7091 47.6081 40.0682 47.6589 39.4266 47.653H36.098V40.7671ZM44.5776 56.5576C44.4627 56.9913 44.2479 57.3916 43.9508 57.7262C43.5992 58.0999 43.1674 58.3876 42.6884 58.5676C42.0229 58.805 41.3192 58.915 40.6135 58.8919H36.098V51.9563H40.5729C41.2506 51.9398 41.9273 52.0175 42.584 52.1871C43.0524 52.3068 43.4892 52.5281 43.8637 52.8357C44.1832 53.1083 44.4204 53.4656 44.5486 53.867C44.6853 54.3115 44.7518 54.7748 44.7459 55.2401C44.7452 55.6846 44.6887 56.1273 44.5776 56.5576V56.5576Z" fill="#433779"/>
<path d="M69.6404 54.8221C69.8121 54.7578 69.9565 54.6361 70.0496 54.4773C70.1646 54.2713 70.2358 54.0435 70.2585 53.8083C70.3002 53.4476 70.3187 53.0846 70.3137 52.7215C70.3343 51.4151 70.1128 50.1163 69.6607 48.8915C69.2588 47.8219 68.6379 46.8495 67.8383 46.0372C67.046 45.2527 66.0961 44.6481 65.0524 44.2639C62.5734 43.3911 59.8643 43.4513 57.4259 44.4333C56.284 44.9178 55.2525 45.6321 54.3946 46.5324C53.5368 47.4326 52.8708 48.4999 52.4374 49.6686C51.9865 50.8709 51.7583 52.1463 51.7641 53.4315C51.7331 55.0076 52.001 56.5752 52.5535 58.0503C53.0278 59.2966 53.7576 60.4284 54.6952 61.372C55.5972 62.2658 56.6773 62.9569 57.8641 63.3995C59.1059 63.8566 60.419 64.0861 61.7412 64.0773C62.4487 64.0738 63.1552 64.026 63.8568 63.9341C64.6122 63.8286 65.3557 63.6495 66.0768 63.3995C66.8352 63.1425 67.5609 62.7963 68.2388 62.3682C68.9736 61.9001 69.6348 61.3241 70.2005 60.6592L68.4941 58.5411C68.3751 58.3716 68.2151 58.2354 68.0293 58.1454C67.8434 58.0555 67.6379 58.0147 67.432 58.0269C67.0785 58.0262 66.7301 58.1114 66.4163 58.2753C66.0952 58.4389 65.7411 58.6229 65.3542 58.8274C64.9305 59.0476 64.4899 59.2332 64.0367 59.3825C63.4651 59.5574 62.8696 59.6402 62.2723 59.6279C61.1255 59.6761 60.0047 59.2762 59.1439 58.5119C58.3352 57.7698 57.8351 56.575 57.6436 54.9273H68.9875C69.2095 54.9295 69.4302 54.8939 69.6404 54.8221V54.8221ZM57.7016 51.4799C57.9048 50.2704 58.3197 49.3443 58.9553 48.7016C59.5908 48.0589 60.4643 47.7375 61.5903 47.7375C62.1447 47.7211 62.6954 47.832 63.2009 48.0618C63.6192 48.2579 63.9867 48.5489 64.2746 48.9119C64.5451 49.2664 64.7424 49.6716 64.855 50.1039C64.9747 50.5526 65.0352 51.0153 65.035 51.4799H57.7016Z" fill="#433779"/>
</g>
<defs>
<clipPath id="clip0_605_5710">
<rect width="40.625" height="28.125" fill="white" transform="translate(29.6875 35.9375)"/>
</clipPath>
</defs>
</svg>
