<svg width="151" height="46" viewBox="0 0 151 46" fill="none" xmlns="http://www.w3.org/2000/svg">
<path d="M3.82227 39.0736H36.1542V6.7417H3.82227V39.0736ZM29.9311 19.7967H23.0992V12.9648H29.9311V19.7967ZM10.0441 12.9648H16.8799V26.0186H29.9311V32.8505H10.0441V12.9648ZM57.2084 6.7417C54.011 6.7417 50.8855 7.68982 48.2271 9.46616C45.5686 11.2425 43.4965 13.7673 42.273 16.7212C41.0494 19.6752 40.7293 22.9255 41.353 26.0614C41.9769 29.1973 43.5164 32.0778 45.7773 34.3386C48.0381 36.5996 50.9186 38.1392 54.0545 38.763C57.1905 39.3867 60.4409 39.0666 63.3949 37.8431C66.3488 36.6195 68.8735 34.5475 70.6499 31.889C72.4262 29.2304 73.3744 26.1049 73.3744 22.9076C73.3693 18.6217 71.6645 14.5127 68.6339 11.4821C65.6033 8.45151 61.4944 6.7467 57.2084 6.7417ZM57.2084 32.8505C55.2419 32.8505 53.3195 32.2674 51.6844 31.1748C50.0494 30.0823 48.7749 28.5295 48.0224 26.7126C47.2699 24.8958 47.073 22.8967 47.4565 20.9678C47.8402 19.0392 48.7872 17.2675 50.1777 15.877C51.5683 14.4865 53.3399 13.5395 55.2686 13.1559C57.1973 12.7722 59.1965 12.9691 61.0134 13.7217C62.8301 14.4742 64.3831 15.7486 65.4756 17.3837C66.5682 19.0187 67.1513 20.9411 67.1513 22.9076C67.1472 25.5435 66.0984 28.0701 64.2346 29.9339C62.3708 31.7977 59.8441 32.8464 57.2084 32.8505ZM131.224 6.7417C128.026 6.74146 124.901 7.68936 122.242 9.46554C119.584 11.2417 117.511 13.7664 116.288 16.7203C115.064 19.6742 114.743 22.9248 115.367 26.0607C115.991 29.1967 117.53 32.0773 119.791 34.3382C122.052 36.5992 124.932 38.139 128.069 38.7629C131.204 39.3867 134.455 39.0666 137.409 37.8432C140.363 36.6196 142.887 34.5476 144.663 31.8891C146.441 29.2306 147.389 26.105 147.389 22.9076C147.384 18.6219 145.679 14.5131 142.649 11.4826C139.619 8.45199 135.51 6.74704 131.224 6.7417ZM131.224 32.8505C129.258 32.8507 127.335 32.2677 125.7 31.1754C124.064 30.083 122.79 28.5302 122.037 26.7135C121.284 24.8967 121.087 22.8974 121.471 20.9686C121.854 19.0399 122.801 17.2681 124.192 15.8774C125.582 14.4868 127.354 13.5397 129.283 13.1559C131.211 12.7722 133.211 12.969 135.027 13.7215C136.845 14.474 138.397 15.7484 139.49 17.3836C140.582 19.0187 141.166 20.9411 141.166 22.9076C141.162 25.5432 140.113 28.0696 138.249 29.9334C136.386 31.7972 133.86 32.8462 131.224 32.8505ZM94.2156 6.7417C91.0182 6.7417 87.8926 7.68982 85.2342 9.46616C82.5757 11.2425 80.5037 13.7673 79.2801 16.7212C78.0565 19.6752 77.7365 22.9255 78.3602 26.0614C78.984 29.1973 80.5236 32.0778 82.7844 34.3386C85.0453 36.5996 87.9258 38.1392 91.0617 38.763C94.1975 39.3867 97.448 39.0666 100.402 37.8431C103.356 36.6195 105.881 34.5475 107.657 31.889C109.433 29.2304 110.382 26.1049 110.382 22.9076C110.376 18.6217 108.672 14.5127 105.641 11.4821C102.61 8.45151 98.5015 6.7467 94.2156 6.7417ZM94.2156 32.8505C92.3833 32.8514 90.5866 32.346 89.0234 31.3902C87.4604 30.4343 86.1917 29.0653 85.3576 27.434C84.5237 25.8026 84.1565 23.9725 84.2969 22.1458C84.4373 20.3189 85.0797 18.5665 86.1532 17.0817C87.2268 15.5971 88.6898 14.4378 90.3805 13.7321C92.0713 13.0263 93.9243 12.8015 95.7347 13.0823C97.5453 13.3632 99.243 14.1389 100.64 15.3237C102.038 16.5086 103.081 18.0566 103.654 19.7967H94.2156V26.0186H103.654C102.998 28.0042 101.733 29.7329 100.038 30.9591C98.3442 32.1854 96.307 32.8471 94.2156 32.8505Z" fill="#9B9B9B"/>
</svg>
