<svg width="150" height="45" viewBox="0 0 150 45" fill="none" xmlns="http://www.w3.org/2000/svg">
<path d="M29.6393 32.6193C28.112 32.6193 26.9569 32.1897 26.1742 31.3306C25.3914 30.4524 25 29.2018 25 27.579V26.4335H27.9783V27.8081C27.9783 29.1064 28.5225 29.7555 29.6107 29.7555C30.1453 29.7555 30.5462 29.6028 30.8135 29.2973C31.0999 28.9727 31.2431 28.4573 31.2431 27.7508C31.2431 26.9108 31.0521 26.1758 30.6703 25.5457C30.2885 24.8966 29.5821 24.1234 28.5511 23.2261C27.2528 22.0805 26.346 21.0496 25.8305 20.1332C25.315 19.1977 25.0573 18.1476 25.0573 16.983C25.0573 15.3984 25.4582 14.1765 26.2601 13.3173C27.0619 12.4391 28.2265 12 29.7539 12C31.2622 12 32.3981 12.4391 33.1618 13.3173C33.9446 14.1765 34.336 15.4175 34.336 17.0403V17.8708H31.3576V16.8398C31.3576 16.1525 31.224 15.6561 30.9567 15.3506C30.6894 15.0261 30.298 14.8638 29.7825 14.8638C28.7325 14.8638 28.2074 15.5034 28.2074 16.7825C28.2074 17.508 28.3984 18.1858 28.7802 18.8158C29.1811 19.4459 29.8971 20.2095 30.928 21.1069C32.2454 22.2524 33.1523 23.2929 33.6486 24.2284C34.145 25.1639 34.3932 26.2617 34.3932 27.5217C34.3932 29.1637 33.9828 30.4237 33.1618 31.302C32.3599 32.1802 31.1858 32.6193 29.6393 32.6193Z" fill="#9B9B9B"/>
<path d="M47.6546 12.2864H56.246V15.1502H50.8048V20.4482H55.1291V23.312H50.8048V29.4691H56.246V32.3329H47.6546V12.2864Z" fill="#9B9B9B"/>
<path d="M69.5134 12.2864H73.4654L76.5297 24.2857H76.5869V12.2864H79.3935V32.3329H76.1574L72.3772 17.6989H72.3199V32.3329H69.5134V12.2864Z" fill="#9B9B9B"/>
<path d="M97.6289 32.6193C96.1206 32.6193 94.9655 32.1897 94.1637 31.3306C93.3809 30.4715 92.9895 29.2591 92.9895 27.6936V16.9257C92.9895 15.3602 93.3809 14.1478 94.1637 13.2887C94.9655 12.4296 96.1206 12 97.6289 12C99.1371 12 100.283 12.4296 101.065 13.2887C101.867 14.1478 102.268 15.3602 102.268 16.9257V19.0449H99.2899V16.7253C99.2899 15.4843 98.7648 14.8638 97.7148 14.8638C96.6647 14.8638 96.1397 15.4843 96.1397 16.7253V27.9227C96.1397 29.1446 96.6647 29.7555 97.7148 29.7555C98.7648 29.7555 99.2899 29.1446 99.2899 27.9227V24.8584H102.268V27.6936C102.268 29.2591 101.867 30.4715 101.065 31.3306C100.283 32.1897 99.1371 32.6193 97.6289 32.6193Z" fill="#9B9B9B"/>
<path d="M120.217 32.6193C118.671 32.6193 117.487 32.1802 116.666 31.302C115.845 30.4237 115.435 29.1827 115.435 27.579V17.0403C115.435 15.4365 115.845 14.1956 116.666 13.3173C117.487 12.4391 118.671 12 120.217 12C121.764 12 122.948 12.4391 123.769 13.3173C124.59 14.1956 125 15.4365 125 17.0403V27.579C125 29.1827 124.59 30.4237 123.769 31.302C122.948 32.1802 121.764 32.6193 120.217 32.6193ZM120.217 29.7555C121.306 29.7555 121.85 29.0968 121.85 27.7795V16.8398C121.85 15.5225 121.306 14.8638 120.217 14.8638C119.129 14.8638 118.585 15.5225 118.585 16.8398V27.7795C118.585 29.0968 119.129 29.7555 120.217 29.7555Z" fill="#9B9B9B"/>
</svg>
