<svg width="20" height="20" viewBox="0 0 20 20" fill="none" xmlns="http://www.w3.org/2000/svg">
<path d="M17.6071 7.64925C17.556 7.64925 17.5053 7.6514 17.4549 7.65457V6.8356C17.4549 5.22037 16.1408 3.90625 14.5256 3.90625H5.47422C3.85907 3.90625 2.54496 5.22037 2.54496 6.8356V7.65457C2.49458 7.6514 2.44393 7.64925 2.39272 7.64925C1.07337 7.64925 0 8.72271 0 10.0421V12.0047C0 13.1553 0.81645 14.1186 1.90056 14.3463L1.59468 15.1824C1.4658 15.5349 1.64701 15.925 1.99926 16.0538C2.07627 16.082 2.15505 16.0952 2.23253 16.0952C2.50963 16.0952 2.76982 15.9244 2.87057 15.6492L3.34758 14.3453H16.6524L17.1294 15.6492C17.23 15.9245 17.4903 16.0952 17.7674 16.0952C17.8448 16.0952 17.9237 16.0819 18.0007 16.0538C18.353 15.925 18.5341 15.5348 18.4052 15.1824L18.0994 14.3463C19.1836 14.1186 19.9999 13.1553 19.9999 12.0047V10.0421C19.9999 8.72271 18.9268 7.64925 17.6071 7.64925ZM4.78543 12.0045V11.391H15.2146V12.0045C15.2146 12.3544 15.2906 12.6868 15.4265 12.9867H4.57365C4.70936 12.6868 4.78543 12.3546 4.78543 12.0045ZM3.90365 6.8356C3.90365 5.96953 4.60823 5.26485 5.47431 5.26485H14.5259C15.392 5.26485 16.0966 5.96953 16.0966 6.8356V8.12607C16.0966 8.14626 16.098 8.16617 16.0997 8.18588C15.5625 8.62308 15.2179 9.28813 15.215 10.0324H4.78515C4.78225 9.28953 4.43908 8.62551 3.90356 8.18831L3.90365 6.8356ZM1.35869 12.0045V10.0419C1.35869 9.47168 1.82262 9.00794 2.39272 9.00794C2.96281 9.00794 3.42674 9.47177 3.42674 10.0419V12.0045C3.42674 12.5748 2.96281 13.0385 2.39272 13.0385C1.82262 13.0385 1.35869 12.5749 1.35869 12.0045ZM18.6413 12.0045C18.6413 12.5748 18.1774 13.0385 17.6074 13.0385C17.0372 13.0385 16.5734 12.5747 16.5734 12.0045V10.0419C16.5734 9.47168 17.0373 9.00794 17.6074 9.00794C18.1775 9.00794 18.6413 9.47177 18.6413 10.0419V12.0045Z" fill="#433779"/>
<path d="M7.72707 8.95584C7.76109 8.98986 7.80585 9.00696 7.85043 9.00696C7.89501 9.00696 7.93978 8.98986 7.9738 8.95584L8.13081 8.79892L8.28782 8.95593C8.32183 8.98995 8.3666 9.00705 8.41118 9.00705C8.45576 9.00705 8.50053 8.98995 8.53454 8.95593C8.60268 8.8878 8.60268 8.77724 8.53454 8.70901L8.37753 8.5521L8.53454 8.39518C8.60268 8.32705 8.60268 8.21649 8.53454 8.14827C8.46641 8.08014 8.35585 8.08014 8.28772 8.14827L8.13071 8.30528L7.9737 8.14827C7.90557 8.08014 7.79501 8.08014 7.72688 8.14827C7.65875 8.2164 7.65875 8.32696 7.72688 8.39518L7.88389 8.5521L7.72688 8.70901C7.65884 8.77724 7.65884 8.88761 7.72707 8.95584Z" fill="#433779"/>
<path d="M11.4655 8.95593C11.4996 8.98995 11.5444 9.00705 11.5889 9.00705C11.6334 9.00705 11.6782 8.98995 11.7123 8.95593L11.8693 8.79892L12.0263 8.95593C12.0603 8.98995 12.1052 9.00705 12.1496 9.00705C12.1941 9.00705 12.239 8.98995 12.273 8.95593C12.3411 8.8878 12.3411 8.77724 12.273 8.70901L12.116 8.5521L12.273 8.39518C12.3411 8.32705 12.3411 8.21649 12.273 8.14827C12.2049 8.08014 12.0943 8.08014 12.0262 8.14827L11.8691 8.30528L11.712 8.14827C11.6439 8.08014 11.5334 8.08014 11.4652 8.14827C11.397 8.2164 11.397 8.32696 11.4652 8.39518L11.6222 8.5521L11.4652 8.70901C11.3973 8.77733 11.3973 8.88771 11.4655 8.95593Z" fill="#433779"/>
<path d="M5.85795 7.08679C5.89197 7.12081 5.93674 7.13791 5.98132 7.13791C6.0259 7.13791 6.07067 7.12081 6.10468 7.08679L6.26169 6.92987L6.4187 7.08688C6.45272 7.1209 6.49749 7.13801 6.54207 7.13801C6.58665 7.13801 6.63141 7.1209 6.66543 7.08688C6.73356 7.01875 6.73356 6.90819 6.66543 6.83997L6.50842 6.68305L6.66543 6.52614C6.73356 6.458 6.73356 6.34744 6.66543 6.27922C6.5973 6.21109 6.48674 6.21109 6.41861 6.27922L6.26169 6.43614L6.10468 6.27913C6.03655 6.21099 5.92599 6.21099 5.85786 6.27913C5.78973 6.34726 5.78973 6.45782 5.85786 6.52604L6.01487 6.68296L5.85786 6.83987C5.78973 6.90819 5.78973 7.01857 5.85795 7.08679Z" fill="#433779"/>
<path d="M9.5963 7.08679C9.63032 7.12081 9.67509 7.13791 9.71967 7.13791C9.76424 7.13791 9.80901 7.12081 9.84303 7.08679L10 6.92978L10.157 7.08679C10.1911 7.12081 10.2359 7.13791 10.2804 7.13791C10.3249 7.13791 10.3698 7.12081 10.4038 7.08679C10.4719 7.01866 10.4719 6.9081 10.4038 6.83987L10.2468 6.68296L10.4038 6.52604C10.4719 6.45791 10.4719 6.34735 10.4038 6.27913C10.3356 6.21099 10.2251 6.21099 10.157 6.27913L9.99985 6.43614L9.84284 6.27913C9.77471 6.21099 9.66415 6.21099 9.59602 6.27913C9.52789 6.34726 9.52789 6.45782 9.59602 6.52604L9.75303 6.68296L9.59602 6.83987C9.52808 6.90819 9.52808 7.01857 9.5963 7.08679Z" fill="#433779"/>
<path d="M13.3346 7.08679C13.3686 7.12081 13.4134 7.13791 13.4579 7.13791C13.5024 7.13791 13.5473 7.12081 13.5813 7.08679L13.7383 6.92978L13.8953 7.08679C13.9293 7.12081 13.9742 7.13791 14.0187 7.13791C14.0632 7.13791 14.108 7.12081 14.142 7.08679C14.2102 7.01866 14.2102 6.9081 14.142 6.83987L13.985 6.68296L14.142 6.52604C14.2102 6.45791 14.2102 6.34735 14.142 6.27913C14.0739 6.21099 13.9633 6.21099 13.8952 6.27913L13.7381 6.43614L13.581 6.27913C13.5129 6.21099 13.4024 6.21099 13.3342 6.27913C13.266 6.34726 13.266 6.45782 13.3342 6.52604L13.4912 6.68296L13.3342 6.83987C13.2663 6.90819 13.2663 7.01857 13.3346 7.08679Z" fill="#433779"/>
</svg>
