<svg width="20" height="20" viewBox="0 0 20 20" fill="none" xmlns="http://www.w3.org/2000/svg">
<g clip-path="url(#clip0_638_5722)">
<path d="M18.9842 2.79346H1.01599C0.455746 2.79346 0 3.24929 0 3.80936V5.40696C0 5.96712 0.455746 6.42287 1.01591 6.42287H1.88376V8.07536C1.88376 8.52903 2.21605 8.90554 2.64969 8.97708V16.1905C2.64969 16.7506 3.10543 17.2064 3.66559 17.2064C3.99805 17.2064 4.26749 16.9369 4.26749 16.6045C4.26749 16.3377 4.09385 16.1114 3.85347 16.0325V8.99041H16.1466V16.0325C15.9062 16.1114 15.7326 16.3377 15.7326 16.6045C15.7326 16.9369 16.002 17.2064 16.3345 17.2064C16.8947 17.2064 17.3505 16.7506 17.3505 16.1905V8.97708C17.784 8.90554 18.1164 8.52903 18.1164 8.07536V6.42278H18.9842C19.5443 6.42278 20.0001 5.96704 20.0001 5.40688V3.80936C20 3.24929 19.5443 2.79346 18.9842 2.79346ZM9.39811 7.78663H3.08755V6.42287H5.19844C5.27023 6.63219 5.46829 6.78297 5.70196 6.78297H6.81723C7.05098 6.78297 7.24905 6.63227 7.32075 6.42287H9.39819L9.39811 7.78663ZM16.9125 7.78663H10.6018V6.42287H12.6792C12.751 6.63219 12.9491 6.78297 13.1828 6.78297H14.298C14.5318 6.78297 14.7299 6.63227 14.8016 6.42287H16.9125V7.78663ZM18.7962 5.21916H17.2011H2.79873H1.20379V3.99716H18.7963L18.7962 5.21916Z" fill="#433779"/>
</g>
<defs>
<clipPath id="clip0_638_5722">
<rect width="20" height="20" fill="white"/>
</clipPath>
</defs>
</svg>
