<svg width="25" height="24" viewBox="0 0 25 24" fill="none" xmlns="http://www.w3.org/2000/svg">
<path fill-rule="evenodd" clip-rule="evenodd" d="M3.3335 6V10.7574C3.3335 11.553 3.64957 12.3161 4.21218 12.8787L12.2122 20.8787C13.3837 22.0503 15.2832 22.0503 16.4548 20.8787L21.2122 16.1213C22.3837 14.9497 22.3837 13.0503 21.2122 11.8787L13.2122 3.87868C12.6496 3.31607 11.8865 3 11.0909 3H6.3335C4.67664 3 3.3335 4.34315 3.3335 6ZM9.3335 11C10.4381 11 11.3335 10.1046 11.3335 9C11.3335 7.89543 10.4381 7 9.3335 7C8.22893 7 7.3335 7.89543 7.3335 9C7.3335 10.1046 8.22893 11 9.3335 11Z" fill="white"/>
</svg>
