<svg width="228" height="52" viewBox="0 0 228 52" fill="none" xmlns="http://www.w3.org/2000/svg">
<path d="M0 3C0 1.34314 1.34315 0 3 0H52.25C53.9069 0 55.25 1.34315 55.25 3V49C55.25 50.6569 53.9069 52 52.25 52H3C1.34315 52 0 50.6569 0 49V3Z" fill="#433779"/>
<path d="M27.487 31.156C26.9756 31.156 26.486 31.0607 26.018 30.87C25.5586 30.6793 25.16 30.4107 24.822 30.064C24.4926 29.7087 24.2673 29.2883 24.146 28.803L25.68 28.257C25.8273 28.699 26.0656 29.0283 26.395 29.245C26.7243 29.453 27.0883 29.557 27.487 29.557C27.8163 29.557 28.1066 29.4877 28.358 29.349C28.618 29.2017 28.8173 29.0023 28.956 28.751C29.0946 28.491 29.164 28.192 29.164 27.854C29.164 27.516 29.0903 27.2213 28.943 26.97C28.8043 26.7187 28.6093 26.5237 28.358 26.385C28.1066 26.2377 27.8163 26.164 27.487 26.164C27.149 26.164 26.8413 26.2377 26.564 26.385C26.2953 26.5323 26.1003 26.7447 25.979 27.022L24.536 26.697L25.303 21.315H30.581V22.81H26.005L26.668 22.043L26.122 26.099L25.615 25.683C25.8576 25.3277 26.1523 25.0677 26.499 24.903C26.8543 24.7383 27.2833 24.656 27.786 24.656C28.4273 24.656 28.982 24.7947 29.45 25.072C29.9266 25.3493 30.295 25.7263 30.555 26.203C30.815 26.6797 30.945 27.23 30.945 27.854C30.945 28.478 30.7933 29.0413 30.49 29.544C30.1866 30.0467 29.775 30.441 29.255 30.727C28.735 31.013 28.1456 31.156 27.487 31.156Z" fill="white"/>
<rect x="59.25" width="168" height="52" rx="3" fill="#F4F4F4"/>
<path d="M79.111 31.156C78.5997 31.156 78.11 31.0607 77.642 30.87C77.1827 30.6793 76.784 30.4107 76.446 30.064C76.1167 29.7087 75.8913 29.2883 75.77 28.803L77.304 28.257C77.4513 28.699 77.6897 29.0283 78.019 29.245C78.3483 29.453 78.7123 29.557 79.111 29.557C79.4403 29.557 79.7307 29.4877 79.982 29.349C80.242 29.2017 80.4413 29.0023 80.58 28.751C80.7187 28.491 80.788 28.192 80.788 27.854C80.788 27.516 80.7143 27.2213 80.567 26.97C80.4283 26.7187 80.2333 26.5237 79.982 26.385C79.7307 26.2377 79.4403 26.164 79.111 26.164C78.773 26.164 78.4653 26.2377 78.188 26.385C77.9193 26.5323 77.7243 26.7447 77.603 27.022L76.16 26.697L76.927 21.315H82.205V22.81H77.629L78.292 22.043L77.746 26.099L77.239 25.683C77.4817 25.3277 77.7763 25.0677 78.123 24.903C78.4783 24.7383 78.9073 24.656 79.41 24.656C80.0513 24.656 80.606 24.7947 81.074 25.072C81.5507 25.3493 81.919 25.7263 82.179 26.203C82.439 26.6797 82.569 27.23 82.569 27.854C82.569 28.478 82.4173 29.0413 82.114 29.544C81.8107 30.0467 81.399 30.441 80.879 30.727C80.359 31.013 79.7697 31.156 79.111 31.156ZM89.2246 31V26.71L85.9616 21.315H87.9766L90.4726 25.527H89.7576L92.2406 21.315H94.2556L91.0056 26.697V31H89.2246ZM95.4666 31V21.315H101.902V22.875H97.2346V25.358H101.642V26.918H97.2346V29.44H101.902V31H95.4666ZM102.535 31L105.876 21.315H108.164L111.505 31H109.581L108.892 28.92H105.148L104.446 31H102.535ZM105.655 27.36H108.385L106.773 22.537H107.267L105.655 27.36ZM112.713 31V21.315H116.314C116.973 21.315 117.553 21.4363 118.056 21.679C118.567 21.913 118.966 22.2597 119.252 22.719C119.538 23.1697 119.681 23.72 119.681 24.37C119.681 25.0373 119.521 25.605 119.2 26.073C118.888 26.541 118.463 26.8877 117.926 27.113L120.149 31H118.147L115.768 26.749L116.912 27.425H114.481V31H112.713ZM114.481 25.865H116.34C116.661 25.865 116.938 25.8043 117.172 25.683C117.406 25.553 117.588 25.3753 117.718 25.15C117.848 24.9247 117.913 24.6647 117.913 24.37C117.913 24.0667 117.848 23.8067 117.718 23.59C117.588 23.3647 117.406 23.1913 117.172 23.07C116.938 22.94 116.661 22.875 116.34 22.875H114.481V25.865ZM121.841 25.033V24.188C122.127 24.1187 122.356 23.993 122.53 23.811C122.712 23.6203 122.824 23.395 122.868 23.135H122.101V21.315H123.817V22.433C123.817 23.135 123.648 23.7113 123.31 24.162C122.98 24.604 122.491 24.8943 121.841 25.033ZM129.672 31.156C129.057 31.156 128.485 31.0433 127.956 30.818C127.436 30.5927 126.985 30.2807 126.604 29.882C126.231 29.4747 125.958 29.0023 125.785 28.465L127.254 27.828C127.488 28.3827 127.826 28.8203 128.268 29.141C128.71 29.453 129.208 29.609 129.763 29.609C130.075 29.609 130.344 29.5613 130.569 29.466C130.803 29.362 130.981 29.2233 131.102 29.05C131.232 28.8767 131.297 28.6687 131.297 28.426C131.297 28.14 131.21 27.906 131.037 27.724C130.872 27.5333 130.621 27.386 130.283 27.282L128.424 26.684C127.67 26.45 127.102 26.099 126.721 25.631C126.34 25.163 126.149 24.6127 126.149 23.98C126.149 23.4253 126.283 22.9357 126.552 22.511C126.829 22.0863 127.211 21.757 127.696 21.523C128.19 21.2803 128.753 21.159 129.386 21.159C129.967 21.159 130.5 21.263 130.985 21.471C131.47 21.6703 131.886 21.952 132.233 22.316C132.588 22.6713 132.853 23.0917 133.026 23.577L131.57 24.227C131.379 23.7417 131.093 23.369 130.712 23.109C130.331 22.8403 129.889 22.706 129.386 22.706C129.091 22.706 128.831 22.758 128.606 22.862C128.381 22.9573 128.203 23.096 128.073 23.278C127.952 23.4513 127.891 23.6593 127.891 23.902C127.891 24.1707 127.978 24.409 128.151 24.617C128.324 24.8163 128.589 24.9723 128.944 25.085L130.725 25.644C131.496 25.8953 132.073 26.242 132.454 26.684C132.844 27.126 133.039 27.672 133.039 28.322C133.039 28.8767 132.896 29.3663 132.61 29.791C132.324 30.2157 131.93 30.5493 131.427 30.792C130.924 31.0347 130.339 31.156 129.672 31.156ZM139.009 31L136.409 21.315H138.307L140.348 29.57H139.854L141.986 21.315H143.819L145.938 29.57H145.444L147.485 21.315H149.383L146.783 31H144.755L142.61 22.966H143.182L141.037 31H139.009ZM149.272 31L152.613 21.315H154.901L158.242 31H156.318L155.629 28.92H151.885L151.183 31H149.272ZM152.392 27.36H155.122L153.51 22.537H154.004L152.392 27.36ZM159.45 31V21.315H163.051C163.71 21.315 164.29 21.4363 164.793 21.679C165.304 21.913 165.703 22.2597 165.989 22.719C166.275 23.1697 166.418 23.72 166.418 24.37C166.418 25.0373 166.258 25.605 165.937 26.073C165.625 26.541 165.2 26.8877 164.663 27.113L166.886 31H164.884L162.505 26.749L163.649 27.425H161.218V31H159.45ZM161.218 25.865H163.077C163.398 25.865 163.675 25.8043 163.909 25.683C164.143 25.553 164.325 25.3753 164.455 25.15C164.585 24.9247 164.65 24.6647 164.65 24.37C164.65 24.0667 164.585 23.8067 164.455 23.59C164.325 23.3647 164.143 23.1913 163.909 23.07C163.675 22.94 163.398 22.875 163.077 22.875H161.218V25.865ZM168.175 31V21.315H171.776C172.434 21.315 173.015 21.4363 173.518 21.679C174.029 21.913 174.428 22.2597 174.714 22.719C175 23.1697 175.143 23.72 175.143 24.37C175.143 25.0373 174.982 25.605 174.662 26.073C174.35 26.541 173.925 26.8877 173.388 27.113L175.611 31H173.609L171.23 26.749L172.374 27.425H169.943V31H168.175ZM169.943 25.865H171.802C172.122 25.865 172.4 25.8043 172.634 25.683C172.868 25.553 173.05 25.3753 173.18 25.15C173.31 24.9247 173.375 24.6647 173.375 24.37C173.375 24.0667 173.31 23.8067 173.18 23.59C173.05 23.3647 172.868 23.1913 172.634 23.07C172.4 22.94 172.122 22.875 171.802 22.875H169.943V25.865ZM176.106 31L179.447 21.315H181.735L185.076 31H183.152L182.463 28.92H178.719L178.017 31H176.106ZM179.226 27.36H181.956L180.344 22.537H180.838L179.226 27.36ZM186.284 31V21.315H187.662L192.992 28.491L192.277 28.634V21.315H194.045V31H192.654L187.402 23.772L188.052 23.629V31H186.284ZM197.766 31V22.875H195.257V21.315H202.017V22.875H199.547V31H197.766ZM205.696 31V26.71L202.433 21.315H204.448L206.944 25.527H206.229L208.712 21.315H210.727L207.477 26.697V31H205.696Z" fill="#262525"/>
</svg>
