<svg width="150" height="45" viewBox="0 0 150 45" fill="none" xmlns="http://www.w3.org/2000/svg">
<path d="M67.5256 33.9284C67.2157 33.9284 66.9123 33.9026 66.6154 33.851C66.3314 33.7993 66.0796 33.7154 65.8602 33.5992V31.2173C66.0409 31.269 66.2539 31.3142 66.4992 31.3529C66.7445 31.3916 66.9704 31.411 67.177 31.411C67.745 31.411 68.1517 31.2754 68.397 31.0043C68.6423 30.7332 68.8424 30.4234 68.9973 30.0748L69.7138 28.4288L69.6751 30.8494L65.0275 19.0561H68.1452L71.2243 27.4411H70.0624L73.1414 19.0561H76.2592L71.7278 30.617C71.4438 31.3529 71.0952 31.9661 70.6821 32.4567C70.269 32.9473 69.7977 33.3152 69.2684 33.5605C68.752 33.8058 68.1711 33.9284 67.5256 33.9284ZM81.8131 29.8618C80.7673 29.8618 79.812 29.6229 78.947 29.1453C78.095 28.6676 77.4107 28.0156 76.8943 27.1894C76.3908 26.3502 76.1391 25.4014 76.1391 24.3427C76.1391 23.2712 76.3908 22.3223 76.8943 21.4961C77.4107 20.6698 78.095 20.0179 78.947 19.5402C79.812 19.0625 80.7673 18.8237 81.8131 18.8237C82.8588 18.8237 83.8077 19.0625 84.6597 19.5402C85.5118 20.0179 86.1896 20.6698 86.6931 21.4961C87.2095 22.3223 87.4677 23.2712 87.4677 24.3427C87.4677 25.4014 87.2095 26.3502 86.6931 27.1894C86.1896 28.0156 85.5118 28.6676 84.6597 29.1453C83.8077 29.6229 82.8588 29.8618 81.8131 29.8618ZM81.8131 27.2475C82.3424 27.2475 82.8007 27.1248 83.188 26.8796C83.5882 26.6343 83.898 26.2921 84.1175 25.8532C84.3499 25.4143 84.4661 24.9108 84.4661 24.3427C84.4661 23.7747 84.3499 23.2776 84.1175 22.8516C83.898 22.4127 83.5882 22.0706 83.188 21.8253C82.8007 21.5671 82.3424 21.438 81.8131 21.438C81.2837 21.438 80.819 21.5671 80.4188 21.8253C80.0186 22.0706 79.7023 22.4127 79.4699 22.8516C79.2504 23.2776 79.1407 23.7747 79.1407 24.3427C79.1407 24.9108 79.2504 25.4143 79.4699 25.8532C79.7023 26.2921 80.0186 26.6343 80.4188 26.8796C80.819 27.1248 81.2837 27.2475 81.8131 27.2475ZM92.1999 29.8618C91.3478 29.8618 90.6184 29.681 90.0116 29.3196C89.4177 28.9452 88.9659 28.4288 88.656 27.7703C88.3462 27.1119 88.1913 26.3438 88.1913 25.4659V19.0561H91.096V25.2335C91.096 25.6337 91.1735 25.9888 91.3284 26.2986C91.4963 26.5955 91.7286 26.8279 92.0256 26.9957C92.3225 27.1636 92.6582 27.2475 93.0325 27.2475C93.4199 27.2475 93.7555 27.1636 94.0395 26.9957C94.3365 26.8279 94.5624 26.5955 94.7173 26.2986C94.8851 25.9888 94.9691 25.6337 94.9691 25.2335V19.0561H97.8738V29.6294H95.1627V27.538L95.3176 28.0027C95.0723 28.6353 94.6721 29.1065 94.117 29.4164C93.5748 29.7133 92.9357 29.8618 92.1999 29.8618ZM99.2223 29.6294V19.0561H101.933V21.5929L101.74 21.225C101.972 20.3342 102.353 19.7338 102.882 19.424C103.424 19.1012 104.064 18.9399 104.799 18.9399H105.419V21.4573H104.509C103.799 21.4573 103.224 21.6768 102.785 22.1157C102.346 22.5418 102.127 23.1485 102.127 23.9361V29.6294H99.2223ZM110.062 29.8618C108.9 29.8618 107.886 29.5907 107.021 29.0484C106.169 28.4933 105.588 27.751 105.279 26.8215L107.409 25.8145C107.68 26.3825 108.048 26.8279 108.513 27.1507C108.977 27.4734 109.494 27.6348 110.062 27.6348C110.475 27.6348 110.791 27.5509 111.011 27.383C111.23 27.2152 111.34 26.9828 111.34 26.6859C111.34 26.531 111.301 26.4019 111.224 26.2986C111.146 26.1824 111.03 26.0791 110.875 25.9888C110.72 25.8984 110.526 25.8209 110.294 25.7564L108.493 25.2529C107.628 25.0076 106.963 24.6138 106.499 24.0716C106.034 23.5165 105.801 22.8645 105.801 22.1157C105.801 21.4573 105.969 20.8828 106.305 20.3923C106.641 19.9017 107.112 19.5208 107.719 19.2497C108.325 18.9657 109.022 18.8237 109.81 18.8237C110.843 18.8237 111.746 19.069 112.521 19.5596C113.309 20.0372 113.864 20.715 114.186 21.5929L112.037 22.5999C111.882 22.1609 111.598 21.8124 111.185 21.5542C110.785 21.283 110.326 21.1475 109.81 21.1475C109.436 21.1475 109.139 21.225 108.919 21.3799C108.713 21.5348 108.609 21.7478 108.609 22.0189C108.609 22.1609 108.648 22.29 108.726 22.4062C108.803 22.5224 108.926 22.6257 109.093 22.7161C109.274 22.8064 109.494 22.8903 109.752 22.9678L111.437 23.4713C112.315 23.7295 112.986 24.1233 113.451 24.6526C113.915 25.169 114.148 25.808 114.148 26.5697C114.148 27.2281 113.973 27.8026 113.625 28.2932C113.289 28.7838 112.818 29.1711 112.211 29.4551C111.604 29.7262 110.888 29.8618 110.062 29.8618ZM120.202 29.7456C118.924 29.7456 117.93 29.4035 117.22 28.7192C116.523 28.0221 116.174 27.0538 116.174 25.8145V21.5735H114.393V19.0561H114.49C115.032 19.0561 115.445 18.9205 115.729 18.6494C116.026 18.3783 116.174 17.9716 116.174 17.4294V16.6548H119.079V19.0561H121.558V21.5735H119.079V25.6208C119.079 25.9823 119.144 26.2857 119.273 26.531C119.402 26.7634 119.602 26.9376 119.873 27.0538C120.144 27.17 120.48 27.2281 120.88 27.2281C120.97 27.2281 121.074 27.2217 121.19 27.2088C121.306 27.1958 121.429 27.1829 121.558 27.17V29.6294C121.364 29.6552 121.145 29.681 120.899 29.7069C120.654 29.7327 120.422 29.7456 120.202 29.7456ZM124.131 33.9284C123.822 33.9284 123.518 33.9026 123.221 33.851C122.937 33.7993 122.685 33.7154 122.466 33.5992V31.2173C122.647 31.269 122.86 31.3142 123.105 31.3529C123.35 31.3916 123.576 31.411 123.783 31.411C124.351 31.411 124.757 31.2754 125.003 31.0043C125.248 30.7332 125.448 30.4234 125.603 30.0748L126.32 28.4288L126.281 30.8494L121.633 19.0561H124.751L127.83 27.4411H126.668L129.747 19.0561H132.865L128.334 30.617C128.05 31.3529 127.701 31.9661 127.288 32.4567C126.875 32.9473 126.404 33.3152 125.874 33.5605C125.358 33.8058 124.777 33.9284 124.131 33.9284ZM133.36 29.6294V14.97H136.265V29.6294H133.36ZM142.709 29.8618C141.586 29.8618 140.611 29.6165 139.785 29.1259C138.958 28.6224 138.319 27.9511 137.868 27.1119C137.416 26.2728 137.19 25.3433 137.19 24.3234C137.19 23.2647 137.422 22.3223 137.887 21.4961C138.365 20.6698 139.004 20.0179 139.804 19.5402C140.604 19.0625 141.508 18.8237 142.515 18.8237C143.354 18.8237 144.097 18.9592 144.742 19.2303C145.388 19.4885 145.93 19.8565 146.369 20.3342C146.821 20.8118 147.163 21.367 147.395 21.9996C147.628 22.6192 147.744 23.297 147.744 24.0329C147.744 24.2394 147.731 24.446 147.705 24.6526C147.692 24.8462 147.66 25.0141 147.608 25.1561H139.688V23.0259H145.962L144.587 24.0329C144.716 23.4778 144.71 22.9872 144.568 22.5611C144.426 22.1222 144.174 21.7801 143.813 21.5348C143.464 21.2766 143.032 21.1475 142.515 21.1475C142.012 21.1475 141.579 21.2701 141.218 21.5154C140.856 21.7607 140.585 22.1222 140.404 22.5999C140.224 23.0775 140.153 23.6585 140.191 24.3427C140.14 24.9366 140.211 25.4594 140.404 25.9113C140.598 26.3632 140.895 26.7182 141.295 26.9764C141.695 27.2217 142.18 27.3443 142.748 27.3443C143.264 27.3443 143.703 27.241 144.064 27.0345C144.439 26.8279 144.729 26.5439 144.936 26.1824L147.26 27.2862C147.053 27.8026 146.724 28.2545 146.272 28.6418C145.833 29.0291 145.31 29.3325 144.703 29.5519C144.097 29.7585 143.432 29.8618 142.709 29.8618Z" fill="#9B9B9B"/>
<path d="M29.2927 32.6292C34.0602 32.6292 37.9251 28.7643 37.9251 23.9967C37.9251 19.2291 34.0602 15.3643 29.2927 15.3643C24.5251 15.3643 20.6602 19.2291 20.6602 23.9967C20.6602 28.7643 24.5251 32.6292 29.2927 32.6292Z" fill="#9B9B9B"/>
<path d="M48.5886 32.6292C53.3561 32.6292 57.221 28.7643 57.221 23.9967C57.221 19.2291 53.3561 15.3643 48.5886 15.3643C43.821 15.3643 39.9561 19.2291 39.9561 23.9967C39.9561 28.7643 43.821 32.6292 48.5886 32.6292Z" fill="#9B9B9B"/>
<path d="M18.6258 15.3643H1.36914V32.6209H18.6258V15.3643Z" fill="#9B9B9B"/>
</svg>
